<?xml version="1.0" encoding="UTF-8"?>
<svg version="1.1" xmlns="http://www.w3.org/2000/svg" width="1254" height="1254" viewBox="0 0 1254 1254">
  <path d="M364 89 C362.19108755 89.23568054 360.38217257 89.4713417 358.57325459 89.70697975 C346.11735557 91.34406273 334.08037848 94.62482472 322 98 C321.18128418 98.22478027 320.36256836 98.44956055 319.51904297 98.68115234 C311.50614926 100.88750422 303.70648826 103.28920262 296.1015625 106.69140625 C293.36948752 107.84410791 290.63878847 108.84624784 287.84375 109.83203125 C282.01700008 111.93305583 276.45174019 114.43669332 270.875 117.125 C269.87726563 117.60509521 268.87953125 118.08519043 267.8515625 118.57983398 C258.93969535 122.92793968 250.38260465 127.70795161 242 133 C241.37222656 133.39509766 240.74445313 133.79019531 240.09765625 134.19726562 C213.99643909 150.77506571 189.16419235 171.52583645 169 195 C168.08139726 196.04355723 167.16206988 197.08647683 166.2421875 198.12890625 C159.75395332 205.52627277 153.76586662 213.1128338 148.20898438 221.23339844 C147.40784284 222.40404872 146.60189808 223.57142739 145.79101562 224.73535156 C128.61031804 249.39975076 115.46748329 276.1348226 106 304.625 C105.77900635 305.28852478 105.5580127 305.95204956 105.33032227 306.63568115 C100.79975789 320.27880186 97.11328469 333.75183838 95 348 C94.75129369 349.53015875 94.50117702 351.06008863 94.25 352.58984375 C93.97861558 354.28897457 93.70778511 355.98819396 93.4375 357.6875 C93.31044678 358.45223633 93.18339355 359.21697266 93.05249023 360.00488281 C90.7578534 374.82055251 90.85049636 389.89060233 90.85282898 404.84405518 C90.84952084 406.79321513 90.84579332 408.74237441 90.8416875 410.69153285 C90.83176795 416.00148313 90.82796715 421.31142211 90.82529819 426.62138033 C90.82136518 432.36675263 90.81178947 438.11211623 90.80308533 443.85748291 C90.78340921 457.70604944 90.7732679 471.5546166 90.76435754 485.40319359 C90.75996177 491.94145194 90.7545985 498.4797095 90.74936867 505.01796722 C90.73236842 526.77846237 90.71785107 548.53895681 90.71061993 570.29945755 C90.71014519 571.70375591 90.7096693 573.10805427 90.70919226 574.51235263 C90.70895589 575.20867621 90.70871951 575.90499978 90.70847597 576.62242407 C90.70727492 580.14964991 90.70605942 583.67687574 90.70483398 587.20410156 C90.70459383 587.90405592 90.70435368 588.60401028 90.70410626 589.32517537 C90.69622041 611.99874269 90.67279747 634.67225759 90.64027804 657.34580204 C90.6058741 681.37760616 90.5862603 705.40937945 90.58297569 729.4412086 C90.58081853 742.51769595 90.57218643 755.59410613 90.54651451 768.67057037 C90.52469691 779.80862773 90.51681125 790.94658914 90.52648129 802.08466545 C90.53099357 807.75514745 90.52932096 813.42543195 90.50971985 819.09588623 C90.43713324 841.32824914 90.54110714 863.03075296 94.47534621 884.97393942 C95.23712905 889.36769597 95.83602102 893.78388205 96.44086188 898.20170712 C96.9664867 900.83227755 97.73719171 902.66236115 99 905 C99.34473957 906.86597135 99.6316954 908.74311336 99.875 910.625 C100.6512335 915.69516007 102.02646817 919.94694513 104.0625 924.6328125 C104.98075742 926.95141249 105.52644834 929.11863516 106 931.5625 C106.78610035 935.46589485 108.12180899 938.73504528 109.8203125 942.32421875 C110.98550502 944.96712231 111.95747891 947.6462532 112.9140625 950.37036133 C116.3047904 959.93123592 120.79449736 968.71560683 125.67675781 977.59326172 C126.99143804 979.98442735 128.28963224 982.38398945 129.5859375 984.78515625 C134.31497588 993.48981451 139.24555459 1001.92239166 145 1010 C145.50015625 1010.70237793 146.0003125 1011.40475586 146.515625 1012.12841797 C154.19466418 1022.85978552 162.16849578 1033.19305848 171 1043 C171.50273437 1043.55913086 172.00546875 1044.11826172 172.5234375 1044.69433594 C181.50526676 1054.63931821 190.60884853 1064.30251396 201.11328125 1072.66796875 C203.60909418 1074.68420734 206.02591281 1076.76613964 208.43457031 1078.88476562 C238.06037531 1104.72186817 274.65293729 1122.85975497 311.9609375 1134.36035156 C313.68872774 1134.90235473 315.4062386 1135.47695952 317.12109375 1136.05859375 C328.93228064 1139.92086789 341.28265874 1142.16898858 353.46742487 1144.50244313 C355.06824276 1144.81694434 356.6666452 1145.14424936 358.26116323 1145.48927277 C383.58824523 1150.90067162 410.55698007 1149.28615979 436.29952836 1149.24679029 C442.11118165 1149.24013195 447.92282738 1149.24517904 453.73448181 1149.24867249 C465.07840307 1149.2536804 476.42229487 1149.24811722 487.76621246 1149.23882218 C500.32100011 1149.22890853 512.87578197 1149.22845535 525.43057275 1149.22892199 C550.40779774 1149.22982504 575.38500748 1149.21992697 600.36222719 1149.20449232 C622.52713154 1149.19084613 644.69202508 1149.18463226 666.85693359 1149.18530273 C668.28267493 1149.18534315 669.70841626 1149.18538351 671.1341576 1149.18542381 C671.83904034 1149.18544416 672.54392308 1149.18546452 673.2701659 1149.18548548 C676.81886131 1149.18558629 680.36755672 1149.18567687 683.91625214 1149.18575573 C684.96654439 1149.1857808 684.96654439 1149.1857808 686.03805467 1149.18580638 C704.60350594 1149.18617168 723.16895586 1149.18163204 741.73440599 1149.17542917 C743.05405876 1149.17498841 744.37371152 1149.17454766 745.73335376 1149.17409355 C748.38338357 1149.17320261 751.03341336 1149.17230243 753.68344316 1149.17139288 C762.89688769 1149.16838009 772.11033128 1149.16731378 781.32377625 1149.16686058 C792.54296542 1149.16617811 803.76214604 1149.16170819 814.98133159 1149.15252777 C820.70223772 1149.14791622 826.42313294 1149.14486196 832.14404106 1149.14612198 C837.38271313 1149.14721986 842.62136105 1149.14368131 847.86002809 1149.13647345 C849.75240472 1149.13466581 851.64478386 1149.13452427 853.53716058 1149.13624074 C868.7282241 1149.14849185 883.05824103 1147.8491116 898 1145 C899.46953125 1144.7208374 899.46953125 1144.7208374 900.96875 1144.43603516 C918.32667463 1141.11429123 935.20119448 1137.05999715 952.02246094 1131.63232422 C953.96125873 1131.01238764 955.90545916 1130.41295299 957.8515625 1129.81640625 C966.06887471 1127.22191326 973.57101519 1123.95726502 981.18896484 1119.94140625 C983.04719702 1118.9754662 984.91975148 1118.04569698 986.80078125 1117.125 C1024.95594971 1098.44917424 1062.06588062 1072.30575512 1088.74609375 1038.8046875 C1090.20418163 1036.99029045 1091.69482214 1035.20138193 1093.22265625 1033.4453125 C1112.50203609 1011.23701185 1128.00005708 985.1121002 1139.17724609 957.94580078 C1139.74403923 956.60534343 1140.33724413 955.27585085 1140.95166016 953.95654297 C1143.90970203 947.602284 1145.98564498 941.08104828 1148 934.375 C1148.52436646 932.64467529 1148.52436646 932.64467529 1149.05932617 930.87939453 C1152.93348317 918.01737413 1156.30069325 905.26013068 1158.62701482 892.02676451 C1159.03323742 889.81939117 1159.48821744 887.62482858 1159.94432545 885.42723656 C1164.79757582 861.06572242 1164.43111237 836.57254346 1164.37751496 811.85253477 C1164.36856968 806.18921454 1164.37714585 800.52591476 1164.38337708 794.8625946 C1164.3928073 783.80359135 1164.38631641 772.7446539 1164.37411413 761.68565558 C1164.36040987 748.77875735 1164.36213936 735.87187432 1164.36424746 722.96497066 C1164.36752475 699.22642322 1164.35467278 675.48791376 1164.33440243 651.74937667 C1164.31603254 630.1349924 1164.31022248 608.52064124 1164.31567383 586.90625 C1164.31602027 585.51783945 1164.31636636 584.12942889 1164.31671212 582.74101834 C1164.31688311 582.05457346 1164.31705411 581.36812858 1164.31723029 580.66088234 C1164.31808399 577.20450615 1164.31890777 573.74812997 1164.31969929 570.29175377 C1164.31985637 569.60967756 1164.32001345 568.92760135 1164.32017529 568.22485617 C1164.3241758 550.09626388 1164.3186303 531.96767581 1164.310188 513.83908522 C1164.30898084 511.2372733 1164.30777485 508.63546137 1164.30657005 506.03364944 C1164.30596651 504.75385672 1164.30536298 503.474064 1164.30474115 502.15548968 C1164.30087818 493.18009811 1164.30124929 484.20471252 1164.3031559 475.22932053 C1164.30528803 464.27799932 1164.29997706 453.32670976 1164.28554235 442.37539743 C1164.27834799 436.79869569 1164.27417845 431.22203981 1164.27878571 425.64533424 C1164.30350363 391.47974244 1163.16768744 358.34313306 1155 325 C1154.80116211 324.18547363 1154.60232422 323.37094727 1154.39746094 322.53173828 C1151.38246419 310.27165323 1151.38246419 310.27165323 1147.02734375 298.44140625 C1145.29710562 294.32962362 1143.8987809 290.09751966 1142.44140625 285.8828125 C1131.89524676 256.77652536 1115.28058999 230.0742895 1096 206 C1095.21109375 204.99839844 1094.4221875 203.99679688 1093.609375 202.96484375 C1082.40757327 188.96259158 1069.78522679 175.48015608 1056 164 C1055.47374023 163.55462891 1054.94748047 163.10925781 1054.40527344 162.65039062 C1039.87020494 150.37774404 1024.32582879 139.74609312 1008 130 C1006.73349609 129.22269531 1006.73349609 129.22269531 1005.44140625 128.4296875 C995.66643722 122.45522643 985.86009796 117.05916601 975.0703125 113.140625 C970.60783628 111.48280941 966.26949114 109.55921888 961.9140625 107.640625 C946.38361837 101.07430896 929.82493386 96.68002373 913.28125 93.5078125 C911 93 911 93 910 92 C878.3329851 86.24236093 846.55428567 85.5493504 814.48306525 85.60782599 C808.87087639 85.61471797 803.25871353 85.60408602 797.64653015 85.59588623 C786.69897125 85.58265385 775.75147458 85.58537906 764.80391339 85.59412415 C755.89616853 85.60094105 746.98844093 85.60180026 738.0806942 85.5985527 C736.80563522 85.598093 735.53057625 85.59763331 734.21687913 85.59715968 C731.62544642 85.59620036 729.03401372 85.59522772 726.44258102 85.5942419 C702.91965472 85.58596125 679.39676983 85.59449998 655.8738505 85.61026969 C634.47325537 85.6245076 613.07271381 85.62322402 591.67211914 85.60888672 C567.53420467 85.59276894 543.39632821 85.58653764 519.25840682 85.59572351 C516.67822405 85.59667902 514.09804128 85.59762213 511.51785851 85.5985527 C510.2488316 85.59901553 508.97980469 85.59947836 507.67232243 85.59995521 C498.78787139 85.60253075 489.90343953 85.59820543 481.01899147 85.59111404 C470.1740817 85.58264687 459.32923695 85.58508793 448.48433451 85.60095628 C442.96568196 85.6087687 437.4471373 85.61205269 431.92848587 85.60200882 C409.0772603 85.56385781 386.67299309 85.90327193 364 89 Z" fill="#1841E9"/>
  <path d="M0 0 C63.69 0 127.38 0 193 0 C195.70383287 5.40766574 197.73839899 9.81346976 199.5 15.4375 C201.07635058 20.36063876 202.83691386 25.0732457 205.03125 29.75390625 C206.61034284 33.4151094 207.77310477 37.20837478 208.97265625 41.0078125 C210.14506479 44.42250811 211.57146047 47.68464259 213 51 C213.98905666 53.57214938 214.92979137 56.16147099 215.875 58.75 C217.93924552 64.33662528 220.18907443 69.76213536 222.72143555 75.15600586 C223.98329269 77.96283684 225.10532909 80.78641132 226.1953125 83.6640625 C228.24632172 89.04035872 230.32507359 94.40465048 232.42578125 99.76171875 C239.3652281 117.47740517 246.24906832 135.21153981 253 153 C260.20526925 171.98041144 267.56014708 190.89984737 274.96484375 209.80322266 C278.13507091 217.89692609 281.29891588 225.99312138 284.46087646 234.09005737 C285.48368073 236.70822604 286.50766512 239.32593096 287.53173828 241.94360352 C290.2960975 249.01622365 293.05042076 256.09069055 295.7109375 263.203125 C296.08798828 264.21020508 296.46503906 265.21728516 296.85351562 266.25488281 C297.50741077 268.01214786 298.1551413 269.77172682 298.79492188 271.53417969 C299.99854565 275.49086338 299.99854565 275.49086338 303 278 C303.30357422 276.26556641 303.30357422 276.26556641 303.61328125 274.49609375 C305.26801917 267.0693515 308.34990701 260.097774 311.1875 253.0625 C311.78058403 251.57767897 312.37294716 250.09256979 312.96459961 248.60717773 C314.12124901 245.70451374 315.28069242 242.80299366 316.44238281 239.90234375 C318.34884478 235.13518226 320.21326438 230.35212183 322.0625 225.5625 C323.58340506 221.62502944 325.12036845 217.69589263 326.69921875 213.78125 C329.76062501 206.14398386 332.69567288 198.45715695 335.65444946 190.77972412 C342.00722631 174.2984985 348.39013866 157.82923467 354.8125 141.375 C355.14834106 140.51413788 355.48418213 139.65327576 355.8302002 138.7663269 C361.69100122 123.74599403 361.69100122 123.74599403 363.9609375 118.1015625 C367.31289764 109.76149186 370.54773669 101.37446777 373.8125 93 C374.50582223 91.22264176 375.19918138 89.44529792 375.89257812 87.66796875 C378.59727161 80.73407106 381.30115753 73.7998661 383.99707031 66.86254883 C384.31431564 66.04620972 384.63156097 65.22987061 384.9584198 64.38879395 C385.55284662 62.85878416 386.14703108 61.32868018 386.74092102 59.79846191 C388.47767864 55.32748254 390.2445129 50.86990392 392.0390625 46.421875 C393.22285517 43.4383325 394.35933873 40.4377848 395.5 37.4375 C396.94521319 33.6560066 398.44167768 29.93146447 400.125 26.25 C401.40910268 23.43111323 402.49289821 20.63740169 403.4375 17.6875 C405.32764715 12.01705855 407.70108842 6.51738779 410 1 C473.69 1 537.38 1 603 1 C603 26.59736687 602.99940834 52.1936126 602.92262459 77.79068756 C602.90735436 82.93255956 602.89298046 88.07443391 602.87864685 93.21630859 C602.85776906 100.67149726 602.83645113 108.12668456 602.81480408 115.58187103 C602.7835096 126.35984168 602.75292583 137.13781425 602.72249681 147.91578737 C602.67306831 165.41684142 602.62309183 182.91789386 602.57275391 200.41894531 C602.52395574 217.38509031 602.47542612 234.35123605 602.42724609 251.31738281 C602.4242591 252.3691934 602.4212721 253.421004 602.41819459 254.50468764 C602.40320623 259.78310908 602.38822302 265.06153053 602.37324238 270.33995199 C602.24962733 313.89330364 602.1250119 357.44665234 602 401 C563.39 401 524.78 401 485 401 C484.505 259.925 484.505 259.925 484 116 C474.89082791 136.68595968 474.89082791 136.68595968 465.9375 157.4375 C464.99797838 159.63562545 464.05805841 161.83358034 463.1181488 164.03153992 C462.45942616 165.57208892 461.8008679 167.11270822 461.14247131 168.65339661 C458.49502857 174.84738574 455.83834819 181.03738143 453.1796875 187.2265625 C451.95688261 190.0745212 450.73417944 192.92252356 449.51150513 195.77053833 C448.72044964 197.61256265 447.92901493 199.45442416 447.13717651 201.29611206 C441.86479297 213.54207742 441.86479297 213.54207742 436.84838867 225.89428711 C435.33806472 229.64293289 433.66360344 233.31748776 432 237 C428.70282082 244.36397765 425.59131764 251.75648628 422.7578125 259.3125 C422.32210938 260.4675 421.88640625 261.6225 421.4375 262.8125 C421.04433594 263.87082031 420.65117188 264.92914062 420.24609375 266.01953125 C419.04916121 268.88241379 417.61594266 271.35847239 416 274 C415.33663423 275.48343212 414.71146981 276.98452049 414.125 278.5 C413.78597656 279.36625 413.44695312 280.2325 413.09765625 281.125 C412.32719398 283.14300794 411.56487596 285.16413514 410.80859375 287.1875 C408.56998242 293.13841664 406.16907033 298.83389207 403.25 304.48046875 C401.45464743 308.09922626 399.9322675 311.81594463 398.40625 315.5546875 C395.08119711 323.70106708 391.66399785 331.80788146 388.21484375 339.90234375 C387.8702713 340.71112976 387.52569885 341.51991577 387.17068481 342.35321045 C385.74598477 345.69640118 384.32098891 349.03946317 382.89379883 352.3815918 C376.13855688 368.2051238 369.57926741 384.10010377 363 400 C322.41 400 281.82 400 240 400 C235.92464307 390.68489844 231.88059631 381.3913742 228 372 C226.45099295 368.2726989 224.89924028 364.54654148 223.34765625 360.8203125 C222.47980918 358.73568063 221.6119708 356.65104515 220.74414062 354.56640625 C220.30303955 353.50695801 219.86193848 352.44750977 219.4074707 351.35595703 C218.51235841 349.20567276 217.61750075 347.05528247 216.72290039 344.90478516 C210.03728231 328.82848975 210.03728231 328.82848975 203.20898438 312.8125 C200.7135364 307.00725754 198.30726247 301.16422187 195.89453125 295.32421875 C192.76027639 287.76135804 189.53553331 280.23863176 186.30444336 272.71679688 C183.8927127 267.09766109 181.51452659 261.46636492 179.17578125 255.81640625 C177.35999721 251.46697007 175.49185744 247.14021498 173.625 242.8125 C172.33265691 239.79786121 171.07062427 236.77125843 169.8125 233.7421875 C166.25233127 225.18449833 162.62519098 216.65529244 159 208.125 C158.62628265 207.24528534 158.25256531 206.36557068 157.86752319 205.459198 C153.05821382 194.14167944 148.21629456 182.83938798 143.3125 171.5625 C138.94682148 161.51537405 134.60489356 151.45859265 130.31039429 141.38082886 C129.69625571 139.940786 129.08091718 138.50125419 128.46426392 137.06228638 C125.3504189 129.79263897 122.34625364 122.56292395 120 115 C119.34 115 118.68 115 118 115 C118.00092179 115.92717016 118.00184359 116.85434032 118.00279331 117.80960655 C118.02546993 140.87393003 118.04164312 163.93825201 118.05181217 187.00258446 C118.05686643 198.15846541 118.06371561 209.31433874 118.07543945 220.47021484 C118.15639711 299.05722491 118.15639711 299.05722491 117.77294922 337.55957031 C117.76319132 338.53943578 117.75343342 339.51930125 117.74337983 340.52885962 C117.53819904 360.68642076 117.25957507 380.8430761 117 401 C78.39 401 39.78 401 0 401 C0 268.67 0 136.34 0 0 Z " fill="#FFFFFF" transform="translate(327,413)"/>
</svg>
